REM DIRINDEX 1\8,1\2\11,1\3\12,1\3\14,1\5\15,1\5\16,1\6\17,1\6\18,1\4\19,1\4\20,1\4\21,1\4\22,1\7\23,1\7\24,1\7\25,1\2\9\26,1\2\9\27,1\2\10\28,1\2\10\29,1\2\10\30,1\2\10\31,1\2\10\32,1\3\13\33,1\3\13\34,1\3\13\35
REM DIRNAME cjc123,folder01,folder02,folder03,folder04,folder05,folder06,folder07,folder08,folder09,folder10,folder11,folder12,folder13,folder14,folder15,folder16,folder17,folder18,folder19,folder20,folder21,folder22,folder23,folder24,folder25,folder26,folder27,folder28,folder29,folder30,folder31,folder32,folder33,folder34
TITLE ""
FILE "132 132_—á•¶UNIT2_SET4.mp3" MP3
  TRACK 01 AUDIO
    TITLE "22:cjc123_3050"
    INDEX 01 00:00:00
  TRACK 02 AUDIO
    TITLE "0:"
    INDEX 01 00:02:47
  TRACK 03 AUDIO
    TITLE "19:cjc123_3051"
    INDEX 01 00:03:23
  TRACK 04 AUDIO
    TITLE "0:"
    INDEX 01 00:07:27
  TRACK 05 AUDIO
    TITLE "20:cjc123_3052"
    INDEX 01 00:07:56
  TRACK 06 AUDIO
    TITLE "0:"
    INDEX 01 00:12:18
  TRACK 07 AUDIO
    TITLE "21:cjc123_3053"
    INDEX 01 00:12:46
  TRACK 08 AUDIO
    TITLE "0:"
    INDEX 01 00:16:48
  TRACK 09 AUDIO
    TITLE "19:cjc123_3054"
    INDEX 01 00:17:21
  TRACK 10 AUDIO
    TITLE "0:"
    INDEX 01 00:21:15
  TRACK 11 AUDIO
    TITLE "20:cjc123_3055"
    INDEX 01 00:21:43
  TRACK 12 AUDIO
    TITLE "0:"
    INDEX 01 00:25:03
  TRACK 13 AUDIO
    TITLE "21:cjc123_3056"
    INDEX 01 00:25:31
  TRACK 14 AUDIO
    TITLE "0:"
    INDEX 01 00:29:21
  TRACK 15 AUDIO
    TITLE "19:cjc123_3057"
    INDEX 01 00:29:70
  TRACK 16 AUDIO
    TITLE "0:"
    INDEX 01 00:33:26
  TRACK 17 AUDIO
    TITLE "20:cjc123_3058"
    INDEX 01 00:33:69
  TRACK 18 AUDIO
    TITLE "0:"
    INDEX 01 00:37:08
  TRACK 19 AUDIO
    TITLE "21:cjc123_3059"
    INDEX 01 00:37:36
  TRACK 20 AUDIO
    TITLE "0:"
    INDEX 01 00:40:66
  TRACK 21 AUDIO
    TITLE "19:cjc123_3060"
    INDEX 01 00:41:65
  TRACK 22 AUDIO
    TITLE "0:"
    INDEX 01 00:45:08
  TRACK 23 AUDIO
    TITLE "20:cjc123_3061"
    INDEX 01 00:45:49
  TRACK 24 AUDIO
    TITLE "0:"
    INDEX 01 00:49:45
  TRACK 25 AUDIO
    TITLE "21:cjc123_3062"
    INDEX 01 00:50:01
  TRACK 26 AUDIO
    TITLE "0:"
    INDEX 01 00:53:19
  TRACK 27 AUDIO
    TITLE "19:cjc123_3063"
    INDEX 01 00:53:64
  TRACK 28 AUDIO
    TITLE "0:"
    INDEX 01 00:58:15
  TRACK 29 AUDIO
    TITLE "20:cjc123_3064"
    INDEX 01 00:58:46
  TRACK 30 AUDIO
    TITLE "0:"
    INDEX 01 01:02:65
  TRACK 31 AUDIO
    TITLE "21:cjc123_3065"
    INDEX 01 01:03:16
  TRACK 32 AUDIO
    TITLE "0:"
    INDEX 01 01:07:39
  TRACK 33 AUDIO
    TITLE "19:cjc123_3066"
    INDEX 01 01:08:15
  TRACK 34 AUDIO
    TITLE "0:"
    INDEX 01 01:11:02
  TRACK 35 AUDIO
    TITLE "20:cjc123_3067"
    INDEX 01 01:11:43
  TRACK 36 AUDIO
    TITLE "0:"
    INDEX 01 01:15:48
  TRACK 37 AUDIO
    TITLE "21:cjc123_3068"
    INDEX 01 01:15:74
  TRACK 38 AUDIO
    TITLE "0:"
    INDEX 01 01:18:60
  TRACK 39 AUDIO
    TITLE "19:cjc123_3069"
    INDEX 01 01:19:42
  TRACK 40 AUDIO
    TITLE "0:"
    INDEX 01 01:23:38
  TRACK 41 AUDIO
    TITLE "20:cjc123_3070"
    INDEX 01 01:23:71
  TRACK 42 AUDIO
    TITLE "0:"
    INDEX 01 01:27:16
  TRACK 43 AUDIO
    TITLE "21:cjc123_3071"
    INDEX 01 01:27:44
  TRACK 44 AUDIO
    TITLE "0:"
    INDEX 01 01:31:32
  TRACK 45 AUDIO
    TITLE "19:cjc123_3072"
    INDEX 01 01:32:13
  TRACK 46 AUDIO
    TITLE "0:"
    INDEX 01 01:36:11
  TRACK 47 AUDIO
    TITLE "20:cjc123_3073"
    INDEX 01 01:36:43
  TRACK 48 AUDIO
    TITLE "0:"
    INDEX 01 01:40:17
  TRACK 49 AUDIO
    TITLE "21:cjc123_3074"
    INDEX 01 01:40:52
  TRACK 50 AUDIO
    TITLE "0:"
    INDEX 01 01:44:48
  TRACK 51 AUDIO
    TITLE "19:cjc123_3075"
    INDEX 01 01:45:20
  TRACK 52 AUDIO
    TITLE "0:"
    INDEX 01 01:49:43
  TRACK 53 AUDIO
    TITLE "20:cjc123_3076"
    INDEX 01 01:50:07
  TRACK 54 AUDIO
    TITLE "0:"
    INDEX 01 01:54:23
  TRACK 55 AUDIO
    TITLE "21:cjc123_3077"
    INDEX 01 01:54:52
  TRACK 56 AUDIO
    TITLE "0:"
    INDEX 01 01:59:01
  TRACK 57 AUDIO
    TITLE "19:cjc123_3078"
    INDEX 01 01:59:59
  TRACK 58 AUDIO
    TITLE "0:"
    INDEX 01 02:03:39
  TRACK 59 AUDIO
    TITLE "20:cjc123_3079"
    INDEX 01 02:03:71
  TRACK 60 AUDIO
    TITLE "0:"
    INDEX 01 02:07:24
  TRACK 61 AUDIO
    TITLE "21:cjc123_3080"
    INDEX 01 02:07:53
  TRACK 62 AUDIO
    TITLE "0:"
    INDEX 01 02:11:31
  TRACK 63 AUDIO
    TITLE "19:cjc123_3081"
    INDEX 01 02:12:09
  TRACK 64 AUDIO
    TITLE "0:"
    INDEX 01 02:15:39
  TRACK 65 AUDIO
    TITLE "20:cjc123_3082"
    INDEX 01 02:16:01
  TRACK 66 AUDIO
    TITLE "0:"
    INDEX 01 02:19:27
  TRACK 67 AUDIO
    TITLE "21:cjc123_3083"
    INDEX 01 02:19:56
  TRACK 68 AUDIO
    TITLE "0:"
    INDEX 01 02:23:09
  TRACK 69 AUDIO
    TITLE "19:cjc123_3084"
    INDEX 01 02:23:58
  TRACK 70 AUDIO
    TITLE "0:"
    INDEX 01 02:26:48
  TRACK 71 AUDIO
    TITLE "20:cjc123_3085"
    INDEX 01 02:27:11
  TRACK 72 AUDIO
    TITLE "0:"
    INDEX 01 02:31:38
  TRACK 73 AUDIO
    TITLE "21:cjc123_3086"
    INDEX 01 02:31:67
  TRACK 74 AUDIO
    TITLE "0:"
    INDEX 01 02:34:60
  TRACK 75 AUDIO
    TITLE "19:cjc123_3087"
    INDEX 01 02:35:36
  TRACK 76 AUDIO
    TITLE "0:"
    INDEX 01 02:39:57
  TRACK 77 AUDIO
    TITLE "20:cjc123_3088"
    INDEX 01 02:40:15
  TRACK 78 AUDIO
    TITLE "0:"
    INDEX 01 02:44:66
  TRACK 79 AUDIO
    TITLE "21:cjc123_3089"
    INDEX 01 02:45:18
  TRACK 80 AUDIO
    TITLE "0:"
    INDEX 01 02:49:42
  TRACK 81 AUDIO
    TITLE "19:cjc123_3090"
    INDEX 01 02:50:14
  TRACK 82 AUDIO
    TITLE "0:"
    INDEX 01 02:53:18
  TRACK 83 AUDIO
    TITLE "20:cjc123_3091"
    INDEX 01 02:53:61
  TRACK 84 AUDIO
    TITLE "0:"
    INDEX 01 02:57:65
  TRACK 85 AUDIO
    TITLE "21:cjc123_3092"
    INDEX 01 02:58:19
  TRACK 86 AUDIO
    TITLE "0:"
    INDEX 01 03:01:23
  TRACK 87 AUDIO
    TITLE "19:cjc123_3093"
    INDEX 01 03:02:11
  TRACK 88 AUDIO
    TITLE "0:"
    INDEX 01 03:05:66
  TRACK 89 AUDIO
    TITLE "20:cjc123_3094"
    INDEX 01 03:06:22
  TRACK 90 AUDIO
    TITLE "0:"
    INDEX 01 03:09:68
  TRACK 91 AUDIO
    TITLE "21:cjc123_3095"
    INDEX 01 03:10:22
  TRACK 92 AUDIO
    TITLE "0:"
    INDEX 01 03:14:02
